<?xml version="1.0" encoding="utf-8"?>
<!-- Generator: Adobe Illustrator 24.0.1, SVG Export Plug-In . SVG Version: 6.00 Build 0)  -->
<svg version="1.1" id="Layer_1" xmlns="http://www.w3.org/2000/svg" xmlns:xlink="http://www.w3.org/1999/xlink" x="0px" y="0px"
	 viewBox="0 0 512 512" style="enable-background:new 0 0 512 512;" xml:space="preserve">
<style type="text/css">
	.st0{fill:#FFCA4F;}
	.st1{fill:#57B7EB;}
	.st2{fill:#4891D3;}
	.st3{fill:#AAE1F9;}
	.st4{fill:#F9E109;}
	.st5{fill:#FCBC04;}
	.st6{fill:#E59730;}
	.st7{fill:#C4F236;}
	.st8{fill:#D0D8DA;}
	.st9{fill:#93999A;}
	.st10{fill:#656B76;}
	.st11{fill:#F4E158;}
	.st12{fill:#A1D51C;}
	.st13{fill:#7AB92D;}
</style>
<path class="st0" d="M256,512c141,0,256-115,256-256S397,0,256,0S0,115,0,256S115,512,256,512z"/>
<g id="Flat">
	<g id="Color_copy">
		<g>
			<path class="st1" d="M86.8,226.8h338.3l0,0v198.3l0,0H121.8c-19.3,0-35-15.7-35-35l0,0V226.8L86.8,226.8z"/>
			<path class="st2" d="M203.5,226.8H86.8v163.3c0,19.3,15.7,35,35,35l0,0h303.3v-46.7h-70C271.4,378.5,203.5,310.6,203.5,226.8z"/>
			<path class="st3" d="M121.8,168.5c-19.3,0-35,15.7-35,35v186.7c0-19.3,15.7-35,35-35s35,15.7,35,35V203.5
				C156.8,184.2,141.2,168.5,121.8,168.5z"/>
			<path class="st4" d="M320.2,331.8c0-2.1-0.2-4.3-0.6-6.4l11.9-6.8l-11.7-20.2l-11.9,6.8c-3.3-2.8-7-5-11.1-6.4v-13.7h-23.3v13.7
				c-4.1,1.4-7.8,3.6-11.1,6.4l-11.9-6.8l-11.7,20.2l11.9,6.8c-0.8,4.2-0.8,8.5,0,12.8l-11.9,6.8l11.7,20.2l11.9-6.8
				c3.3,2.8,7,5,11.1,6.4v13.7h23.3v-13.7c4.1-1.4,7.8-3.6,11.1-6.4l11.9,6.8l11.7-20.2l-11.9-6.8C320,336.1,320.2,334,320.2,331.8
				L320.2,331.8z M285.2,343.5c-6.4,0-11.7-5.2-11.7-11.7c0-6.4,5.2-11.7,11.7-11.7s11.7,5.2,11.7,11.7
				C296.8,338.3,291.6,343.5,285.2,343.5z"/>
			<circle class="st5" cx="203.5" cy="384.3" r="11.7"/>
			<path class="st1" d="M127.7,263V169c-18.9-3.3-37,9.3-40.3,28.3c-0.4,2.1-0.5,4.1-0.5,6.2v186.7c0-19.3,15.7-35,35-35
				s35,15.7,35,35v-36.6C137.9,327.2,127.7,295.5,127.7,263z"/>
			<path class="st5" d="M326,349.3c-11.5,0-22.7-3.4-32.2-9.7c-4.3,4.8-11.6,5.2-16.4,0.9s-5.2-11.6-0.9-16.4
				c0.3-0.3,0.6-0.6,0.9-0.9c-4.4-6.7-7.4-14.2-8.8-22.1c-2.2,1.2-4.3,2.5-6.2,4.1l-11.9-6.8l-11.7,20.2l11.8,6.8
				c-0.8,4.2-0.8,8.5,0,12.8l-11.9,6.8l11.7,20.2l11.9-6.8c3.3,2.8,7,5,11.1,6.4v13.7h23.3v-13.7c4.1-1.4,7.8-3.6,11.1-6.4l11.9,6.8
				l9.2-15.9L326,349.3z"/>
			<path class="st6" d="M209.3,390.2c-6.4,0-11.6-5.2-11.7-11.6c0-1.7,0.4-3.3,1.1-4.9c-5.9,2.6-8.5,9.5-5.9,15.4
				c2.6,5.9,9.5,8.5,15.4,5.9c2.6-1.2,4.7-3.3,5.9-5.9C212.6,389.8,211,390.2,209.3,390.2z"/>
			<path class="st6" d="M262.4,358.4c3.3,2.8,7,5,11.1,6.4v13.7h23.3v-11.7c-17.2-7.2-32.8-17.4-46.3-30.3c0.1,0.5,0.1,1.1,0.2,1.6
				l-11.9,6.8l11.7,20.2L262.4,358.4z"/>
			<path class="st7" d="M361,407.7h-70c-3.2,0-5.8-2.6-5.8-5.8c0-3.2,2.6-5.8,5.8-5.8h70c6.4,0,11.7-5.2,11.7-11.7v-11.7
				c0-3.2,2.6-5.8,5.8-5.8s5.8,2.6,5.8,5.8v11.7C384.3,397.2,373.9,407.7,361,407.7z"/>
			<path class="st7" d="M221,337.7h-12.1c-15.9,0-28.8-12.9-28.8-28.8c0-13.2,9-24.7,21.8-27.9l8.9-2.2
				c11.7-2.9,21.9-10.1,28.6-20.2c1.8-2.7,5.4-3.4,8.1-1.6c2.7,1.8,3.4,5.4,1.6,8.1l0,0c-8.3,12.5-21,21.4-35.5,25l-8.9,2.2
				c-9.2,2.3-14.7,11.6-12.4,20.7c1.9,7.6,8.7,12.9,16.6,12.9H221c3.2,0,5.8,2.6,5.8,5.8C226.8,335.1,224.2,337.7,221,337.7z"/>
			<g>
				<path class="st5" d="M291,162.7c0-25.8-20.9-46.7-46.6-46.7s-46.7,20.9-46.7,46.6c0,14.2,6.4,27.6,17.5,36.5v10.3h58.3v-10.3
					C284.6,190.2,291,176.8,291,162.7z"/>
				<path class="st8" d="M215.2,209.3h58.3c6.4,0,11.7,5.2,11.7,11.7l0,0c0,6.4-5.2,11.7-11.7,11.7h-58.3c-6.4,0-11.7-5.2-11.7-11.7
					l0,0C203.5,214.6,208.7,209.3,215.2,209.3z"/>
				<path class="st9" d="M215.2,232.7h58.3l0,0v5.8c0,16.1-13.1,29.2-29.2,29.2s-29.2-13.1-29.2-29.2V232.7L215.2,232.7z"/>
				<path class="st6" d="M226.8,145.2c0-10,2.9-19.8,8.3-28.3c-25.3,5.1-41.6,29.7-36.5,55c2.2,10.7,8,20.3,16.5,27.2v10.3h58.3
					v-10.3c0.6-0.5,1.2-1.1,1.8-1.6C248,195.4,226.8,172.6,226.8,145.2z"/>
				<path class="st9" d="M215.2,209.3c-6.4,0-11.7,5.2-11.7,11.7s5.2,11.7,11.7,11.7h58.3c6.4,0,11.7-5.2,11.7-11.7h-58.3
					C220.4,221,215.2,215.8,215.2,209.3z"/>
				<path class="st10" d="M261.8,244.3h11.1c0.4-1.9,0.6-3.9,0.6-5.8v-5.8h-58.3v5.8c0,12,7.5,22.8,18.7,27.1
					C237.4,253.1,248.8,244.4,261.8,244.3z"/>
				<g>
					<circle class="st11" cx="174.3" cy="162.7" r="5.8"/>
					<circle class="st11" cx="314.3" cy="162.7" r="5.8"/>
					<circle class="st11" cx="244.3" cy="92.7" r="5.8"/>
					<circle class="st11" cx="183.7" cy="127.7" r="5.8"/>
					<circle class="st11" cx="305" cy="197.7" r="5.8"/>
					<circle class="st11" cx="279.3" cy="102" r="5.8"/>
					<circle class="st11" cx="305" cy="127.7" r="5.8"/>
					<circle class="st11" cx="183.7" cy="197.7" r="5.8"/>
					<circle class="st11" cx="209.3" cy="102" r="5.8"/>
					<path class="st11" d="M238.4,209.3c0-0.2,0.1-0.4,0.1-0.6l-4.8-43.4l8.8,3c1.2,0.4,2.5,0.4,3.7,0l8.8-3l-4.8,43.4
						c0,0.2,0,0.4,0.1,0.6h11.6l5.8-51.9c0.4-3.2-2-6.1-5.2-6.4c-0.8-0.1-1.7,0-2.5,0.3l-15.7,5.2l-15.7-5.2c-3.1-1-6.4,0.6-7.4,3.7
						c-0.3,0.8-0.4,1.6-0.3,2.5l5.8,51.9H238.4z"/>
				</g>
			</g>
			<g>
				<path class="st12" d="M401.8,291h-46.7V145.2h46.7V291z"/>
				<path class="st5" d="M378.5,349.3l23.3-58.3h-46.7L378.5,349.3z"/>
				<path class="st3" d="M401.8,121.8h-46.7l0,0v-11.7c0-12.9,10.4-23.3,23.3-23.3s23.3,10.4,23.3,23.3V121.8L401.8,121.8z"/>
				<path class="st8" d="M401.8,145.2h-46.7v-23.3h46.7V145.2z"/>
				<path class="st9" d="M364.5,314.3h28l-14,35L364.5,314.3z"/>
				<path class="st13" d="M375.8,224.1c0,22.5,2.4,44.9,7,66.9h-27.7V145.2h20.6V224.1z"/>
				<path class="st6" d="M388.6,314.3h-24.1l14,35L355.2,291h27.7C384.5,298.8,386.4,306.6,388.6,314.3L388.6,314.3z"/>
				<path class="st1" d="M378.5,86.8c2.1,0,4.2,0.4,6.3,1c-5.6,4.4-8.9,11.1-9,18.3v15.8h-20.6v-11.7
					C355.2,97.3,365.6,86.8,378.5,86.8L378.5,86.8z"/>
				<path class="st9" d="M355.2,121.8h20.6v23.3h-20.6V121.8z"/>
				<path class="st10" d="M388.6,314.3c0.5,1.9,1.1,3.7,1.7,5.6l-11.8,29.4l-14-35H388.6z"/>
				<path class="st1" d="M369.8,145.2h17.5V291h-17.5V145.2z"/>
				<path class="st2" d="M375.8,145.2h-6V291h13.1c-4.6-22-7-44.5-7-66.9L375.8,145.2z"/>
			</g>
			<g>
				<path class="st12" d="M208.9,337.7H221c3.2,0,5.8-2.6,5.8-5.8c0-3.2-2.6-5.8-5.8-5.8h-12.1c-9.4,0-17.1-7.7-17.1-17.1
					c0-7.8,5.3-14.7,12.9-16.6l8.9-2.2c1.1-0.3,2.1-0.6,3.2-1c-1.6-3.6-3.1-7.2-4.4-10.8c-0.5,0.2-1.1,0.4-1.6,0.5L202,281
					c-15.4,3.9-24.8,19.5-20.9,34.9C184.3,328.7,195.7,337.7,208.9,337.7L208.9,337.7z"/>
				<path class="st12" d="M372.7,378.5v5.8c0,6.4-5.2,11.7-11.7,11.7h-70c-3.2,0-5.8,2.6-5.8,5.8c0,3.2,2.6,5.8,5.8,5.8h70
					c12.9,0,23.3-10.4,23.3-23.3v-5.8H372.7z"/>
			</g>
		</g>
	</g>
</g>
</svg>
