<?xml version="1.0" encoding="utf-8"?>
<!-- Generator: Adobe Illustrator 24.0.1, SVG Export Plug-In . SVG Version: 6.00 Build 0)  -->
<svg version="1.1" id="Layer_1" xmlns="http://www.w3.org/2000/svg" xmlns:xlink="http://www.w3.org/1999/xlink" x="0px" y="0px"
	 viewBox="0 0 512 512" style="enable-background:new 0 0 512 512;" xml:space="preserve">
<style type="text/css">
	.st0{fill:#68FCDF;}
	.st1{fill:#10E2C4;}
	.st2{fill:#1ABA9F;}
	.st3{fill:#57B7EB;}
	.st4{fill:#4891D3;}
	.st5{fill:#AAE1F9;}
	.st6{fill:#F9E109;}
	.st7{fill:#FCBC04;}
	.st8{fill:#E59730;}
	.st9{fill:#C4F236;}
	.st10{fill:#D0D8DA;}
	.st11{fill:#93999A;}
	.st12{fill:#656B76;}
	.st13{fill:#A1D51C;}
	.st14{fill:#7AB92D;}
	.st15{fill:#EEEEEE;}
	.st16{fill:#FFFFFF;}
	.st17{fill:#FE5F1A;}
	.st18{fill:#FE834D;}
	.st19{fill:#81E3E2;}
	.st20{fill:#ABECEC;}
	.st21{fill:#969696;}
	.st22{fill:#42C8C6;}
</style>
<path class="st0" d="M512,256c0,141.4-114.6,256-256,256S0,397.4,0,256S114.6,0,256,0S512,114.6,512,256z"/>
<path class="st1" d="M512,256c0,141.4-114.6,256-256,256S0,397.4,0,256c0-46.2,12.2-89.6,33.7-127C77.8,206.1,160.8,258,256,258
	s178.2-51.9,222.3-129C499.8,166.4,512,209.8,512,256z"/>
<path class="st2" d="M481.3,377.7L481.3,377.7C438,457.7,353.3,512,256,512S74,457.7,30.7,377.7v0H481.3z"/>
<g id="Flat">
	<g id="Color_copy">
		<g>
			<path class="st3" d="M604.3,243.8h338.3l0,0v198.3l0,0H639.3c-19.3,0-35-15.7-35-35l0,0V243.8L604.3,243.8z"/>
			<path class="st4" d="M721,243.8H604.3v163.3c0,19.3,15.7,35,35,35l0,0h303.3v-46.7h-70C788.9,395.5,721,327.6,721,243.8z"/>
			<path class="st5" d="M639.3,185.5c-19.3,0-35,15.7-35,35v186.7c0-19.3,15.7-35,35-35c19.3,0,35,15.7,35,35V220.5
				C674.3,201.2,658.6,185.5,639.3,185.5z"/>
			<path class="st6" d="M837.7,348.9c0-2.1-0.2-4.3-0.6-6.4l11.9-6.8l-11.7-20.2l-11.9,6.8c-3.3-2.8-7-5-11.1-6.4v-13.7H791v13.7
				c-4.1,1.4-7.8,3.6-11.1,6.4l-11.9-6.8l-11.7,20.2l11.9,6.8c-0.8,4.2-0.8,8.5,0,12.8l-11.9,6.8l11.7,20.2l11.9-6.8
				c3.3,2.8,7,5,11.1,6.4v13.7h23.3v-13.7c4.1-1.4,7.8-3.6,11.1-6.4l11.9,6.8l11.7-20.2l-11.9-6.8
				C837.5,353.1,837.7,351,837.7,348.9L837.7,348.9z M802.7,360.5c-6.4,0-11.7-5.2-11.7-11.7c0-6.4,5.2-11.7,11.7-11.7
				c6.4,0,11.7,5.2,11.7,11.7C814.3,355.3,809.1,360.5,802.7,360.5z"/>
			<circle class="st7" cx="721" cy="401.4" r="11.7"/>
			<path class="st3" d="M645.2,280V186c-18.9-3.3-37,9.3-40.3,28.3c-0.4,2.1-0.5,4.1-0.5,6.2v186.7c0-19.3,15.7-35,35-35
				c19.3,0,35,15.7,35,35v-36.6C655.4,344.2,645.2,312.5,645.2,280z"/>
			<path class="st7" d="M843.5,366.4c-11.5,0-22.7-3.4-32.2-9.7c-4.3,4.8-11.6,5.2-16.4,0.9s-5.2-11.6-0.9-16.4
				c0.3-0.3,0.6-0.6,0.9-0.9c-4.4-6.7-7.4-14.2-8.8-22.1c-2.2,1.2-4.3,2.5-6.2,4.1l-11.9-6.8l-11.7,20.2l11.8,6.8
				c-0.8,4.2-0.8,8.5,0,12.8l-11.9,6.8l11.7,20.2l11.9-6.8c3.3,2.8,7,5,11.1,6.4v13.7h23.3v-13.7c4.1-1.4,7.8-3.6,11.1-6.4l11.9,6.8
				l9.2-15.9L843.5,366.4z"/>
			<path class="st8" d="M726.8,407.2c-6.4,0-11.6-5.2-11.7-11.6c0-1.7,0.4-3.3,1.1-4.9c-5.9,2.6-8.5,9.5-5.9,15.4
				c2.6,5.9,9.5,8.5,15.4,5.9c2.6-1.2,4.7-3.3,5.9-5.9C730.1,406.8,728.5,407.2,726.8,407.2z"/>
			<path class="st8" d="M779.9,375.4c3.3,2.8,7,5,11.1,6.4v13.7h23.3v-11.7c-17.2-7.2-32.8-17.4-46.3-30.3c0.1,0.5,0.1,1.1,0.2,1.6
				l-11.9,6.8l11.7,20.2L779.9,375.4z"/>
			<path class="st9" d="M878.5,424.7h-70c-3.2,0-5.8-2.6-5.8-5.8c0-3.2,2.6-5.8,5.8-5.8h70c6.4,0,11.7-5.2,11.7-11.7v-11.7
				c0-3.2,2.6-5.8,5.8-5.8s5.8,2.6,5.8,5.8v11.7C901.8,414.2,891.4,424.7,878.5,424.7z"/>
			<path class="st9" d="M738.5,354.7h-12.1c-15.9,0-28.8-12.9-28.8-28.8c0-13.2,9-24.7,21.8-27.9l8.9-2.2
				c11.7-2.9,21.9-10.1,28.6-20.2c1.8-2.7,5.4-3.4,8.1-1.6c2.7,1.8,3.4,5.4,1.6,8.1l0,0c-8.3,12.5-21,21.4-35.5,25l-8.9,2.2
				c-9.2,2.3-14.7,11.6-12.4,20.7c1.9,7.6,8.7,12.9,16.6,12.9h12.1c3.2,0,5.8,2.6,5.8,5.8C744.3,352.1,741.7,354.7,738.5,354.7z"/>
			<g>
				<path class="st7" d="M808.5,179.7c0-25.8-20.9-46.7-46.6-46.7c-25.8,0-46.7,20.9-46.7,46.6c0,14.2,6.4,27.6,17.5,36.5v10.3H791
					v-10.3C802,207.2,808.5,193.8,808.5,179.7z"/>
				<path class="st10" d="M732.7,226.3H791c6.4,0,11.7,5.2,11.7,11.7l0,0c0,6.4-5.2,11.7-11.7,11.7h-58.3c-6.4,0-11.7-5.2-11.7-11.7
					l0,0C721,231.6,726.2,226.3,732.7,226.3z"/>
				<path class="st11" d="M732.7,249.7H791l0,0v5.8c0,16.1-13.1,29.2-29.2,29.2s-29.2-13.1-29.2-29.2V249.7L732.7,249.7z"/>
				<path class="st8" d="M744.3,162.2c0-10,2.9-19.8,8.3-28.3c-25.3,5.1-41.6,29.7-36.5,55c2.2,10.7,8,20.3,16.5,27.2v10.3H791
					v-10.3c0.6-0.5,1.2-1.1,1.8-1.6C765.4,212.4,744.3,189.6,744.3,162.2z"/>
				<path class="st11" d="M732.7,226.3c-6.4,0-11.7,5.2-11.7,11.7s5.2,11.7,11.7,11.7H791c6.4,0,11.7-5.2,11.7-11.7h-58.3
					C737.9,238,732.7,232.8,732.7,226.3z"/>
				<path class="st12" d="M779.3,261.3h11.1c0.4-1.9,0.6-3.9,0.6-5.8v-5.8h-58.3v5.8c0,12,7.5,22.8,18.7,27.1
					C754.8,270.1,766.3,261.4,779.3,261.3z"/>
				<g>
					<circle class="st6" cx="691.8" cy="179.7" r="5.8"/>
					<circle class="st6" cx="831.8" cy="179.7" r="5.8"/>
					<circle class="st6" cx="761.8" cy="109.7" r="5.8"/>
					<circle class="st6" cx="701.2" cy="144.7" r="5.8"/>
					<circle class="st6" cx="822.4" cy="214.7" r="5.8"/>
					<circle class="st6" cx="796.8" cy="119.1" r="5.8"/>
					<circle class="st6" cx="822.4" cy="144.7" r="5.8"/>
					<circle class="st6" cx="701.2" cy="214.7" r="5.8"/>
					<circle class="st6" cx="726.8" cy="119.1" r="5.8"/>
					<path class="st6" d="M755.9,226.3c0-0.2,0.1-0.4,0.1-0.6l-4.8-43.4l8.8,3c1.2,0.4,2.5,0.4,3.7,0l8.8-3l-4.8,43.4
						c0,0.2,0,0.4,0.1,0.6h11.6l5.8-51.9c0.4-3.2-2-6.1-5.2-6.4c-0.8-0.1-1.7,0-2.5,0.3l-15.7,5.2l-15.7-5.2c-3.1-1-6.4,0.6-7.4,3.7
						c-0.3,0.8-0.4,1.6-0.3,2.5l5.8,51.9H755.9z"/>
				</g>
			</g>
			<g>
				<path class="st13" d="M919.3,308h-46.7V162.2h46.7V308z"/>
				<path class="st7" d="M896,366.4l23.3-58.3h-46.7L896,366.4z"/>
				<path class="st5" d="M919.3,138.8h-46.7l0,0v-11.7c0-12.9,10.4-23.3,23.3-23.3s23.3,10.4,23.3,23.3V138.8L919.3,138.8z"/>
				<path class="st10" d="M919.3,162.2h-46.7v-23.3h46.7V162.2z"/>
				<path class="st11" d="M882,331.3h28l-14,35L882,331.3z"/>
				<path class="st14" d="M893.3,241.1c0,22.5,2.4,44.9,7,66.9h-27.7V162.2h20.6V241.1z"/>
				<path class="st8" d="M906.1,331.3H882l14,35L872.7,308h27.7C902,315.9,903.8,323.6,906.1,331.3L906.1,331.3z"/>
				<path class="st3" d="M896,103.8c2.1,0,4.2,0.4,6.3,1c-5.6,4.4-8.9,11.1-9,18.3v15.8h-20.6v-11.7
					C872.7,114.3,883.1,103.8,896,103.8L896,103.8z"/>
				<path class="st11" d="M872.7,138.8h20.6v23.3h-20.6V138.8z"/>
				<path class="st12" d="M906.1,331.3c0.5,1.9,1.1,3.7,1.7,5.6L896,366.4l-14-35H906.1z"/>
				<path class="st3" d="M887.2,162.2h17.5V308h-17.5V162.2z"/>
				<path class="st4" d="M893.3,162.2h-6V308h13.1c-4.6-22-7-44.5-7-66.9L893.3,162.2z"/>
			</g>
			<g>
				<path class="st13" d="M726.4,354.7h12.1c3.2,0,5.8-2.6,5.8-5.8c0-3.2-2.6-5.8-5.8-5.8h-12.1c-9.4,0-17.1-7.7-17.1-17.1
					c0-7.8,5.3-14.7,12.9-16.6l8.9-2.2c1.1-0.3,2.1-0.6,3.2-1c-1.6-3.6-3.1-7.2-4.4-10.8c-0.5,0.2-1.1,0.4-1.6,0.5l-8.9,2.2
					c-15.4,3.9-24.8,19.5-20.9,34.9C701.7,345.7,713.2,354.7,726.4,354.7L726.4,354.7z"/>
				<path class="st13" d="M890.2,395.5v5.8c0,6.4-5.2,11.7-11.7,11.7h-70c-3.2,0-5.8,2.6-5.8,5.8c0,3.2,2.6,5.8,5.8,5.8h70
					c12.9,0,23.3-10.4,23.3-23.3v-5.8H890.2z"/>
			</g>
		</g>
	</g>
</g>
<g>
	<polygon class="st15" points="401.6,116.9 401.6,411.9 382.2,411.9 336.8,264.4 382.2,116.9 	"/>
	<rect x="106.6" y="116.9" class="st16" width="275.6" height="295"/>
	<polygon class="st17" points="382.2,136.3 382.2,155.8 362.7,155.8 345.3,146.1 362.7,136.3 	"/>
	<rect x="126" y="136.3" class="st18" width="236.7" height="19.5"/>
	<polygon class="st19" points="382.2,325.5 382.2,392.5 362.7,392.5 345.3,359 362.7,325.5 	"/>
	<rect x="126" y="325.5" class="st20" width="236.7" height="67"/>
	<g>
		<path class="st21" d="M290.3,272h-72.4c-2.7,0-4.9-2.2-4.9-4.9c0-2.7,2.2-4.9,4.9-4.9h72.4c2.7,0,4.9,2.2,4.9,4.9
			S293,272,290.3,272z"/>
		<path class="st21" d="M382.2,272h-72.4c-2.7,0-4.9-2.2-4.9-4.9c0-2.7,2.2-4.9,4.9-4.9h72.4c2.7,0,4.9,2.2,4.9,4.9
			C387,269.8,384.9,272,382.2,272z"/>
		<path class="st21" d="M198.4,272H126c-2.7,0-4.9-2.2-4.9-4.9c0-2.7,2.2-4.9,4.9-4.9h72.4c2.7,0,4.9,2.2,4.9,4.9
			S201.1,272,198.4,272z"/>
		<path class="st21" d="M290.3,291.4h-72.4c-2.7,0-4.9-2.2-4.9-4.9s2.2-4.9,4.9-4.9h72.4c2.7,0,4.9,2.2,4.9,4.9
			S293,291.4,290.3,291.4z"/>
		<path class="st21" d="M382.2,291.4h-72.4c-2.7,0-4.9-2.2-4.9-4.9s2.2-4.9,4.9-4.9h72.4c2.7,0,4.9,2.2,4.9,4.9
			S384.9,291.4,382.2,291.4z"/>
		<path class="st21" d="M198.4,291.4H126c-2.7,0-4.9-2.2-4.9-4.9s2.2-4.9,4.9-4.9h72.4c2.7,0,4.9,2.2,4.9,4.9
			S201.1,291.4,198.4,291.4z"/>
		<path class="st21" d="M254.2,310.9h-36.3c-2.7,0-4.9-2.2-4.9-4.9c0-2.7,2.2-4.9,4.9-4.9h36.3c2.7,0,4.9,2.2,4.9,4.9
			S256.9,310.9,254.2,310.9z"/>
		<path class="st21" d="M346.1,310.9h-36.3c-2.7,0-4.9-2.2-4.9-4.9c0-2.7,2.2-4.9,4.9-4.9h36.3c2.7,0,4.9,2.2,4.9,4.9
			C350.9,308.7,348.8,310.9,346.1,310.9z"/>
		<path class="st21" d="M162.3,310.9H126c-2.7,0-4.9-2.2-4.9-4.9c0-2.7,2.2-4.9,4.9-4.9h36.3c2.7,0,4.9,2.2,4.9,4.9
			C167.2,308.7,165,310.9,162.3,310.9z"/>
	</g>
	<g>
		<path class="st22" d="M295.1,174.8c0-0.1,0-0.1,0-0.2c0-0.1,0-0.2,0-0.3s0-0.2-0.1-0.2c0-0.1,0-0.2-0.1-0.2c0-0.1-0.1-0.1-0.1-0.2
			c0-0.1-0.1-0.2-0.1-0.2c0-0.1-0.1-0.1-0.1-0.2c0-0.1-0.1-0.2-0.1-0.2c0-0.1-0.1-0.1-0.1-0.2c0-0.1-0.1-0.1-0.1-0.2
			c0-0.1-0.1-0.1-0.1-0.2c0-0.1-0.1-0.1-0.1-0.2c-0.1-0.1-0.2-0.2-0.3-0.3c0,0,0,0-0.1-0.1c0,0,0,0-0.1,0c-0.1-0.1-0.2-0.2-0.3-0.3
			c-0.1,0-0.1-0.1-0.2-0.1c-0.1-0.1-0.1-0.1-0.2-0.2c-0.1,0-0.1-0.1-0.2-0.1s-0.1-0.1-0.2-0.1s-0.1-0.1-0.2-0.1s-0.1-0.1-0.2-0.1
			s-0.1,0-0.2-0.1c-0.1,0-0.2-0.1-0.3-0.1c-0.1,0-0.1,0-0.2-0.1c-0.1,0-0.2,0-0.3-0.1c-0.1,0-0.1,0-0.2,0s-0.2,0-0.3,0
			c-0.1,0-0.2,0-0.4,0h-0.1h-72.4h-0.1c-0.1,0-0.2,0-0.4,0c-0.1,0-0.2,0-0.3,0s-0.1,0-0.2,0c-0.1,0-0.2,0-0.3,0.1
			c-0.1,0-0.1,0-0.2,0.1c-0.1,0-0.2,0.1-0.2,0.1c-0.1,0-0.1,0-0.2,0.1c-0.1,0-0.1,0.1-0.2,0.1c-0.1,0-0.1,0.1-0.2,0.1
			c-0.1,0-0.1,0.1-0.2,0.1c-0.1,0-0.1,0.1-0.2,0.1c-0.1,0-0.1,0.1-0.2,0.2c-0.1,0-0.1,0.1-0.2,0.1c-0.1,0.1-0.2,0.2-0.3,0.3
			c0,0,0,0-0.1,0c0,0,0,0-0.1,0.1s-0.2,0.2-0.3,0.3s-0.1,0.1-0.1,0.2c0,0.1-0.1,0.1-0.1,0.2c0,0.1-0.1,0.1-0.1,0.2
			c0,0.1-0.1,0.1-0.1,0.2c0,0.1-0.1,0.2-0.1,0.2c0,0.1-0.1,0.1-0.1,0.2c0,0.1-0.1,0.2-0.1,0.2c0,0.1-0.1,0.1-0.1,0.2
			c0,0.1,0,0.2-0.1,0.2c0,0.1,0,0.2-0.1,0.2c0,0.1,0,0.2,0,0.3s0,0.1,0,0.2c0,0.2,0,0.3,0,0.5v72.4c0,0.2,0,0.3,0,0.5
			c0,0.1,0,0.1,0,0.2c0,0.1,0,0.2,0,0.3s0,0.2,0.1,0.2c0,0.1,0,0.2,0.1,0.2c0,0.1,0.1,0.1,0.1,0.2c0,0.1,0.1,0.2,0.1,0.2
			c0,0.1,0.1,0.1,0.1,0.2c0,0.1,0.1,0.2,0.1,0.2c0,0.1,0.1,0.1,0.1,0.2c0,0.1,0.1,0.1,0.1,0.2c0,0.1,0.1,0.1,0.1,0.2
			c0,0.1,0.1,0.1,0.1,0.2c0.1,0.1,0.2,0.2,0.3,0.3c0,0,0,0,0.1,0.1c0,0,0,0,0.1,0c0.1,0.1,0.2,0.2,0.3,0.3c0.1,0,0.1,0.1,0.2,0.1
			c0.1,0.1,0.1,0.1,0.2,0.2c0.1,0,0.1,0.1,0.2,0.1c0.1,0,0.1,0.1,0.2,0.1c0.1,0,0.1,0.1,0.2,0.1c0.1,0,0.1,0.1,0.2,0.1
			c0.1,0,0.1,0.1,0.2,0.1c0.1,0,0.2,0.1,0.2,0.1c0.1,0,0.1,0,0.2,0.1c0.1,0,0.2,0,0.2,0.1c0.1,0,0.2,0,0.2,0c0.1,0,0.1,0,0.2,0
			c0.2,0,0.3,0,0.5,0h72.4c0.2,0,0.3,0,0.5,0c0.1,0,0.1,0,0.2,0s0.2,0,0.2,0c0.1,0,0.2,0,0.2-0.1c0.1,0,0.1,0,0.2-0.1
			c0.1,0,0.2-0.1,0.2-0.1c0.1,0,0.1,0,0.2-0.1c0.1,0,0.1-0.1,0.2-0.1s0.1-0.1,0.2-0.1s0.1-0.1,0.2-0.1s0.1-0.1,0.2-0.1
			s0.1-0.1,0.2-0.2c0.1,0,0.1-0.1,0.2-0.1c0.1-0.1,0.2-0.2,0.3-0.3c0,0,0,0,0.1,0c0,0,0,0,0.1-0.1s0.2-0.2,0.3-0.3
			c0.1-0.1,0.1-0.1,0.1-0.2c0-0.1,0.1-0.1,0.1-0.2c0-0.1,0.1-0.1,0.1-0.2c0-0.1,0.1-0.1,0.1-0.2c0-0.1,0.1-0.2,0.1-0.2
			c0-0.1,0.1-0.1,0.1-0.2c0-0.1,0.1-0.2,0.1-0.2c0-0.1,0.1-0.1,0.1-0.2c0-0.1,0-0.2,0.1-0.2c0-0.1,0-0.2,0.1-0.2c0-0.1,0-0.2,0-0.3
			s0-0.1,0-0.2c0-0.2,0-0.3,0-0.5v-72.4C295.2,175.1,295.2,174.9,295.1,174.8z M247.2,211.4l-24.5,24.5V187L247.2,211.4z
			 M229.6,180.1h48.9l-24.4,24.5L229.6,180.1z M254.1,218.3l24.5,24.5h-48.9L254.1,218.3z M261,211.4l24.5-24.5v48.9L261,211.4z"/>
		<path class="st22" d="M386.1,250.5c0-0.1,0.1-0.1,0.1-0.2c0-0.1,0.1-0.1,0.1-0.2c0-0.1,0.1-0.1,0.1-0.2c0-0.1,0.1-0.2,0.1-0.2
			c0-0.1,0.1-0.1,0.1-0.2c0-0.1,0.1-0.2,0.1-0.2c0-0.1,0.1-0.1,0.1-0.2c0-0.1,0-0.2,0.1-0.2c0-0.1,0-0.2,0.1-0.2c0-0.1,0-0.2,0-0.3
			s0-0.1,0-0.2c0-0.2,0-0.3,0-0.5v-72.4c0-0.2,0-0.3,0-0.5c0-0.1,0-0.1,0-0.2c0-0.1,0-0.2,0-0.3s0-0.2-0.1-0.2c0-0.1,0-0.2-0.1-0.2
			c0-0.1-0.1-0.1-0.1-0.2c0-0.1-0.1-0.2-0.1-0.2c0-0.1-0.1-0.1-0.1-0.2c0-0.1-0.1-0.2-0.1-0.2c0-0.1-0.1-0.1-0.1-0.2
			c0-0.1-0.1-0.1-0.1-0.2c0-0.1-0.1-0.1-0.1-0.2c0-0.1-0.1-0.1-0.1-0.2c-0.1-0.1-0.2-0.2-0.3-0.3c0,0,0,0-0.1-0.1c0,0,0,0-0.1,0
			c-0.1-0.1-0.2-0.2-0.3-0.3c-0.1,0-0.1-0.1-0.2-0.1c-0.1-0.1-0.1-0.1-0.2-0.2c-0.1,0-0.1-0.1-0.2-0.1s-0.1-0.1-0.2-0.1
			s-0.1-0.1-0.2-0.1s-0.1-0.1-0.2-0.1s-0.1,0-0.2-0.1c-0.1,0-0.2-0.1-0.3-0.1c-0.1,0-0.1,0-0.2-0.1c-0.1,0-0.2,0-0.3-0.1
			c-0.1,0-0.1,0-0.2,0s-0.2,0-0.3,0c-0.1,0-0.2,0-0.4,0H382h-72.4h-0.1c-0.1,0-0.2,0-0.4,0c-0.1,0-0.2,0-0.3,0c-0.1,0-0.1,0-0.2,0
			s-0.2,0-0.3,0.1c-0.1,0-0.1,0-0.2,0.1c-0.1,0-0.2,0.1-0.2,0.1c-0.1,0-0.1,0-0.2,0.1c-0.1,0-0.2,0.1-0.2,0.1
			c-0.1,0-0.1,0.1-0.2,0.1s-0.1,0.1-0.2,0.1s-0.1,0.1-0.2,0.1s-0.1,0.1-0.2,0.2c-0.1,0-0.1,0.1-0.2,0.1c-0.1,0.1-0.2,0.2-0.3,0.3
			c0,0,0,0-0.1,0c0,0,0,0-0.1,0.1s-0.2,0.2-0.3,0.3c-0.1,0.1-0.1,0.1-0.1,0.2c0,0.1-0.1,0.1-0.1,0.2c0,0.1-0.1,0.1-0.1,0.2
			c0,0.1-0.1,0.1-0.1,0.2c0,0.1-0.1,0.2-0.1,0.2c0,0.1-0.1,0.1-0.1,0.2c0,0.1-0.1,0.2-0.1,0.2c0,0.1-0.1,0.1-0.1,0.2
			c0,0.1,0,0.2-0.1,0.2c0,0.1,0,0.2-0.1,0.2c0,0.1,0,0.2,0,0.3s0,0.1,0,0.2c0,0.2,0,0.3,0,0.5v72.4c0,0.2,0,0.3,0,0.5
			c0,0.1,0,0.1,0,0.2c0,0.1,0,0.2,0,0.3s0,0.2,0.1,0.2c0,0.1,0,0.2,0.1,0.2c0,0.1,0.1,0.1,0.1,0.2c0,0.1,0.1,0.2,0.1,0.2
			c0,0.1,0.1,0.1,0.1,0.2c0,0.1,0.1,0.2,0.1,0.2c0,0.1,0.1,0.1,0.1,0.2c0,0.1,0.1,0.1,0.1,0.2c0,0.1,0.1,0.1,0.1,0.2
			c0,0.1,0.1,0.1,0.1,0.2c0.1,0.1,0.2,0.2,0.3,0.3c0,0,0,0,0.1,0.1c0,0,0,0,0.1,0c0.1,0.1,0.2,0.2,0.3,0.3c0.1,0,0.1,0.1,0.2,0.1
			c0.1,0.1,0.1,0.1,0.2,0.2c0.1,0,0.1,0.1,0.2,0.1s0.1,0.1,0.2,0.1s0.1,0.1,0.2,0.1s0.1,0.1,0.2,0.1s0.1,0.1,0.2,0.1
			s0.2,0.1,0.2,0.1c0.1,0,0.1,0,0.2,0.1c0.1,0,0.2,0,0.2,0.1c0.1,0,0.2,0,0.2,0c0.1,0,0.1,0,0.2,0c0.2,0,0.3,0,0.5,0h72.4
			c0.2,0,0.3,0,0.5,0c0.1,0,0.1,0,0.2,0s0.2,0,0.2,0c0.1,0,0.2,0,0.2-0.1c0.1,0,0.1,0,0.2-0.1c0.1,0,0.2-0.1,0.2-0.1
			c0.1,0,0.1,0,0.2-0.1c0.1,0,0.1-0.1,0.2-0.1s0.1-0.1,0.2-0.1s0.1-0.1,0.2-0.1s0.1-0.1,0.2-0.1s0.1-0.1,0.2-0.2
			c0.1,0,0.1-0.1,0.2-0.1c0.1-0.1,0.2-0.2,0.3-0.3c0,0,0,0,0.1,0c0,0,0,0,0.1-0.1s0.2-0.2,0.3-0.3C386,250.7,386,250.6,386.1,250.5z
			 M339.1,211.4l-24.5,24.5V187L339.1,211.4z M321.5,180.1h48.9l-24.5,24.5L321.5,180.1z M346,218.3l24.5,24.5h-48.9L346,218.3z
			 M352.8,211.4l24.5-24.5v48.9L352.8,211.4z"/>
		<path class="st22" d="M203.3,174.8c0-0.1,0-0.1,0-0.2c0-0.1,0-0.2,0-0.3s0-0.2-0.1-0.2c0-0.1,0-0.2-0.1-0.2c0-0.1-0.1-0.1-0.1-0.2
			c0-0.1-0.1-0.2-0.1-0.2c0-0.1-0.1-0.1-0.1-0.2c0-0.1-0.1-0.2-0.1-0.2c0-0.1-0.1-0.1-0.1-0.2c0-0.1-0.1-0.1-0.1-0.2
			c0-0.1-0.1-0.1-0.1-0.2c0-0.1-0.1-0.1-0.1-0.2c-0.1-0.1-0.2-0.2-0.3-0.3c0,0,0,0-0.1-0.1c0,0,0,0-0.1,0c-0.1-0.1-0.2-0.2-0.3-0.3
			c-0.1,0-0.1-0.1-0.2-0.1c-0.1-0.1-0.1-0.1-0.2-0.2c-0.1,0-0.1-0.1-0.2-0.1c-0.1,0-0.1-0.1-0.2-0.1c-0.1,0-0.1-0.1-0.2-0.1
			c-0.1,0-0.1-0.1-0.2-0.1c-0.1,0-0.1,0-0.2-0.1c-0.1,0-0.2-0.1-0.3-0.1s-0.1,0-0.2-0.1c-0.1,0-0.2,0-0.3-0.1c-0.1,0-0.1,0-0.2,0
			c-0.1,0-0.2,0-0.3,0s-0.2,0-0.4,0h-0.1h-72.4h-0.1c-0.1,0-0.2,0-0.4,0c-0.1,0-0.2,0-0.3,0s-0.1,0-0.2,0c-0.1,0-0.2,0-0.3,0.1
			c-0.1,0-0.1,0-0.2,0.1c-0.1,0-0.2,0.1-0.2,0.1c-0.1,0-0.1,0-0.2,0.1c-0.1,0-0.2,0.1-0.2,0.1c-0.1,0-0.1,0.1-0.2,0.1
			c-0.1,0-0.1,0.1-0.2,0.1c-0.1,0-0.1,0.1-0.2,0.1c-0.1,0-0.1,0.1-0.2,0.2c-0.1,0-0.1,0.1-0.2,0.1c-0.1,0.1-0.2,0.2-0.3,0.3
			c0,0,0,0-0.1,0c0,0,0,0-0.1,0.1c-0.1,0.1-0.2,0.2-0.3,0.3s-0.1,0.1-0.1,0.2c0,0.1-0.1,0.1-0.1,0.2c0,0.1-0.1,0.1-0.1,0.2
			c0,0.1-0.1,0.1-0.1,0.2c0,0.1-0.1,0.2-0.1,0.2c0,0.1-0.1,0.1-0.1,0.2c0,0.1-0.1,0.2-0.1,0.2c0,0.1-0.1,0.1-0.1,0.2
			c0,0.1,0,0.2-0.1,0.2c0,0.1,0,0.2-0.1,0.2c0,0.1,0,0.2,0,0.3s0,0.1,0,0.2c0,0.2,0,0.3,0,0.5v72.4c0,0.2,0,0.3,0,0.5
			c0,0.1,0,0.1,0,0.2c0,0.1,0,0.2,0,0.3s0,0.2,0.1,0.2c0,0.1,0,0.2,0.1,0.2c0,0.1,0.1,0.1,0.1,0.2c0,0.1,0.1,0.2,0.1,0.2
			c0,0.1,0.1,0.1,0.1,0.2c0,0.1,0.1,0.2,0.1,0.2c0,0.1,0.1,0.1,0.1,0.2c0,0.1,0.1,0.1,0.1,0.2c0,0.1,0.1,0.1,0.1,0.2
			c0,0.1,0.1,0.1,0.1,0.2c0.1,0.1,0.2,0.2,0.3,0.3c0,0,0,0,0.1,0.1c0,0,0,0,0.1,0c0.1,0.1,0.2,0.2,0.3,0.3c0.1,0,0.1,0.1,0.2,0.1
			c0.1,0.1,0.1,0.1,0.2,0.2c0.1,0,0.1,0.1,0.2,0.1c0.1,0,0.1,0.1,0.2,0.1c0.1,0,0.1,0.1,0.2,0.1c0.1,0,0.1,0.1,0.2,0.1
			c0.1,0,0.1,0.1,0.2,0.1c0.1,0,0.2,0.1,0.2,0.1c0.1,0,0.1,0,0.2,0.1c0.1,0,0.2,0,0.2,0.1c0.1,0,0.2,0,0.2,0c0.1,0,0.1,0,0.2,0
			c0.2,0,0.3,0,0.5,0h72.4c0.2,0,0.3,0,0.5,0c0.1,0,0.1,0,0.2,0c0.1,0,0.2,0,0.2,0c0.1,0,0.2,0,0.2-0.1c0.1,0,0.1,0,0.2-0.1
			c0.1,0,0.2-0.1,0.2-0.1c0.1,0,0.1,0,0.2-0.1c0.1,0,0.1-0.1,0.2-0.1c0.1,0,0.1-0.1,0.2-0.1c0.1,0,0.1-0.1,0.2-0.1
			c0.1,0,0.1-0.1,0.2-0.1c0.1,0,0.1-0.1,0.2-0.2c0.1,0,0.1-0.1,0.2-0.1c0.1-0.1,0.2-0.2,0.3-0.3c0,0,0,0,0.1,0c0,0,0,0,0.1-0.1
			s0.2-0.2,0.3-0.3s0.1-0.1,0.1-0.2c0-0.1,0.1-0.1,0.1-0.2c0-0.1,0.1-0.1,0.1-0.2c0-0.1,0.1-0.1,0.1-0.2c0-0.1,0.1-0.2,0.1-0.2
			c0-0.1,0.1-0.1,0.1-0.2c0-0.1,0.1-0.2,0.1-0.2c0-0.1,0.1-0.1,0.1-0.2c0-0.1,0-0.2,0.1-0.2c0-0.1,0-0.2,0.1-0.2c0-0.1,0-0.2,0-0.3
			s0-0.1,0-0.2c0-0.2,0-0.3,0-0.5v-72.4C203.3,175.1,203.3,174.9,203.3,174.8z M155.4,211.4l-24.5,24.5V187L155.4,211.4z
			 M137.8,180.1h48.9l-24.5,24.5L137.8,180.1z M162.2,218.3l24.5,24.5h-48.9L162.2,218.3z M169.1,211.4l24.5-24.5v48.9L169.1,211.4z
			"/>
	</g>
</g>
</svg>
